<svg version="1.1" id="Layer_1" xmlns="http://www.w3.org/2000/svg" xmlns:xlink="http://www.w3.org/1999/xlink" x="0px" y="0px"
	 width="100%" viewBox="0 0 250 225" enable-background="new 0 0 250 225" xml:space="preserve">
<path fill="#081346" opacity="1.000000" stroke="none" 
	d="
M251.000000,157.000000 
	C251.000000,162.688034 251.000000,168.376083 250.679810,174.692169 
	C249.846268,176.504791 249.173660,177.646713 248.843353,178.880280 
	C243.417206,199.144806 231.505539,213.681305 211.654816,221.319809 
	C208.038391,222.711411 204.548370,224.431534 201.000000,226.000000 
	C196.975449,226.000000 192.950912,226.000000 188.077179,225.855835 
	C184.919418,225.472305 182.611084,225.027039 180.302246,225.024353 
	C143.992340,224.982269 107.682335,224.977798 71.372490,225.041992 
	C68.914436,225.046326 66.457474,225.666336 64.000000,226.000000 
	C59.643101,226.000000 55.286201,226.000000 50.318188,225.681763 
	C48.084263,224.608719 46.517864,223.683304 44.830013,223.125214 
	C25.936003,216.877747 12.619846,204.661102 5.004422,186.232422 
	C3.841145,183.417404 2.343168,180.740692 0.999999,178.000000 
	C1.000000,170.312424 1.000000,162.624832 1.317838,154.307312 
	C4.005486,148.064545 5.757113,142.083603 8.844915,136.898331 
	C29.680168,101.910324 50.800838,67.092300 71.823692,32.215988 
	C78.205696,21.628412 85.989761,12.612678 97.902397,7.890153 
	C103.038284,5.854133 107.973579,3.312139 113.000000,1.000001 
	C121.687569,1.000000 130.375137,1.000000 139.679932,1.316707 
	C141.467529,2.189134 142.589645,2.903140 143.815506,3.276701 
	C160.728317,8.430636 172.964447,19.387346 181.843246,34.289955 
	C196.953979,59.652504 211.973312,85.070740 226.838455,110.577827 
	C233.592499,122.167046 239.980011,133.974106 246.331467,145.791107 
	C248.238358,149.338898 249.462875,153.253464 251.000000,157.000000 
M69.987343,106.007820 
	C69.987343,106.007820 69.912544,105.983521 69.905991,106.610840 
	C70.254730,107.106529 70.603470,107.602211 70.972237,108.008896 
	C70.972237,108.008896 70.883240,107.988884 70.898148,108.670082 
	C71.588562,109.796738 72.278976,110.923393 73.001396,112.001122 
	C73.001396,112.001122 72.943230,111.995224 72.983467,112.777573 
	C74.842010,119.336517 76.635872,125.914650 78.574654,132.449799 
	C81.309868,141.669556 84.152351,150.857529 86.987152,160.005966 
	C86.987152,160.005966 86.928337,159.977325 86.817978,160.753510 
	C87.523209,162.856323 88.228439,164.959122 88.959419,167.000504 
	C88.959419,167.000504 88.908661,167.044083 89.104599,167.853653 
	C98.409950,167.895844 107.715294,167.938034 116.974670,167.950424 
	C116.974670,167.950424 116.971832,168.005142 117.480858,167.858597 
	C117.669800,167.572342 117.858742,167.286102 117.989967,166.998505 
	C117.989967,166.998505 118.016777,167.049622 118.480263,166.886887 
	C118.679741,166.459335 118.879219,166.031784 119.457642,165.117661 
	C119.362320,164.380859 119.266998,163.644058 119.500107,162.727463 
	C119.500107,162.727463 119.547424,162.356049 119.418137,161.776520 
	C118.939590,161.174332 118.461044,160.572128 117.970757,160.028976 
	C117.970757,160.028976 118.030045,160.018539 117.719818,159.472229 
	C117.145721,159.288544 116.571632,159.104874 116.002052,158.979340 
	C116.002052,158.979340 116.050018,158.946136 115.407127,158.405685 
	C112.778969,158.253006 110.134476,157.842926 107.526505,158.008377 
	C103.672516,158.252884 102.613480,156.636536 103.061111,153.014954 
	C104.034401,145.140381 104.592133,137.211700 105.682304,129.355469 
	C106.236458,125.362000 104.949692,123.350952 101.018051,122.978432 
	C101.018051,122.978432 101.072754,122.956184 100.925476,122.440414 
	C100.614716,122.283257 100.303947,122.126099 99.983505,122.021690 
	C99.983505,122.021690 100.032219,121.999260 99.771332,121.431793 
	C98.843269,120.611588 97.915199,119.791389 96.967888,119.025764 
	C96.967888,119.025764 97.025352,119.018814 96.855965,118.329819 
	C96.055283,116.432632 95.254593,114.535446 94.194252,112.023010 
	C101.314095,112.023010 107.636581,112.023010 113.941002,112.907066 
	C113.121391,123.342590 112.411133,133.788513 111.421715,144.207901 
	C111.084023,147.764038 111.820992,149.522186 115.793152,149.432297 
	C123.954887,149.247635 132.124084,149.278488 140.288315,149.377075 
	C143.461884,149.415405 144.842300,148.427917 144.472229,145.004272 
	C143.613037,137.055939 143.073395,129.073563 142.276672,121.117767 
	C141.971741,118.072701 141.318985,115.062462 140.777206,111.745422 
	C148.138504,111.745422 154.802628,111.745422 161.726273,111.745422 
	C160.690369,117.519005 157.331833,120.665665 153.207108,123.499542 
	C151.810211,124.459267 150.546265,126.837883 150.624252,128.502350 
	C150.927979,134.983917 151.743561,141.444809 152.463989,147.902771 
	C153.569946,157.816467 153.604385,157.859207 143.876434,158.087448 
	C139.996216,158.178482 136.545151,159.009338 136.661057,163.669067 
	C136.767136,167.933426 140.049835,168.971512 143.728790,168.982300 
	C149.394684,168.998947 155.079880,168.703110 160.720718,169.080505 
	C165.567337,169.404755 167.621140,167.734604 168.918488,162.882980 
	C174.455292,142.177155 178.609924,121.066666 188.287231,101.578918 
	C193.432541,91.217583 184.638519,78.553017 173.084351,76.800598 
	C163.463165,75.341347 153.971268,72.771843 144.576920,70.141182 
	C133.320602,66.989128 122.294510,67.145309 111.093086,70.299767 
	C103.447472,72.452866 95.601479,73.885582 87.916664,75.911911 
	C84.038651,76.934471 80.319733,78.560410 75.779587,79.788353 
	C75.174095,80.188881 74.568604,80.589409 74.010590,81.009872 
	C74.010590,81.009872 73.993462,80.961311 73.361374,81.144318 
	C72.222992,82.421143 71.084610,83.697960 69.994598,84.999931 
	C69.994598,84.999931 69.968842,84.951920 69.404083,85.242142 
	C69.235542,85.821762 69.067001,86.401390 68.959305,86.980728 
	C68.959305,86.980728 68.936684,86.924240 68.331383,87.180580 
	C68.185440,87.785194 68.039505,88.389809 67.935364,88.894066 
	C67.935364,88.894066 67.834999,88.852287 67.240875,89.335342 
	C65.426964,93.710114 65.349556,97.994560 67.976334,102.040504 
	C67.976334,102.040504 67.874878,101.971176 67.877632,102.613480 
	C68.219627,103.137367 68.561630,103.661255 68.964172,104.036804 
	C68.964172,104.036804 68.815834,103.976265 68.862213,104.610428 
	C69.229149,105.101158 69.596085,105.591888 69.987343,106.007820 
M108.042717,178.041290 
	C108.042717,178.041290 108.027466,177.990860 107.502029,178.321609 
	C107.311821,178.890335 107.121605,179.459061 106.991188,179.991074 
	C106.991188,179.991074 106.953537,179.931854 106.484169,180.399155 
	C106.642555,181.618530 106.800934,182.837906 106.998528,184.006332 
	C106.998528,184.006332 106.940468,183.978714 106.919769,184.600937 
	C107.289139,185.070709 107.658508,185.540482 108.042244,185.958023 
	C108.042244,185.958023 107.989861,185.971893 108.320053,186.563599 
	C109.351456,187.014313 110.382858,187.465012 112.287025,188.077103 
	C122.547249,188.104935 132.814697,188.343857 143.061981,187.993301 
	C145.272003,187.917694 148.627304,186.149582 149.255173,184.380371 
	C149.954803,182.408966 148.143356,179.546432 146.675339,176.550110 
	C134.825516,176.400909 122.975769,176.243515 111.125557,176.138336 
	C110.730919,176.134827 110.331581,176.660004 109.987236,176.975204 
	C109.987236,176.975204 110.011452,176.915771 109.385521,176.873245 
	C108.920914,177.258194 108.456314,177.643143 108.042717,178.041290 
z"/>
<path fill="#000000" opacity="1.000000" stroke="none" 
	d="
M251.000000,156.531342 
	C249.462875,153.253464 248.238358,149.338898 246.331467,145.791107 
	C239.980011,133.974106 233.592499,122.167046 226.838455,110.577827 
	C211.973312,85.070740 196.953979,59.652504 181.843246,34.289955 
	C172.964447,19.387346 160.728317,8.430636 143.815506,3.276701 
	C142.589645,2.903140 141.467529,2.189134 140.148590,1.316707 
	C176.939285,1.000000 213.878571,1.000000 251.000000,1.000000 
	C251.000000,52.687420 251.000000,104.375053 251.000000,156.531342 
z"/>
<path fill="#000000" opacity="1.000000" stroke="none" 
	d="
M112.531342,1.000001 
	C107.973579,3.312139 103.038284,5.854133 97.902397,7.890153 
	C85.989761,12.612678 78.205696,21.628412 71.823692,32.215988 
	C50.800838,67.092300 29.680168,101.910324 8.844915,136.898331 
	C5.757113,142.083603 4.005486,148.064545 1.317838,153.838684 
	C1.000000,103.084320 1.000000,52.168644 1.000000,1.000000 
	C38.020512,1.000000 75.041595,1.000000 112.531342,1.000001 
z"/>
<path fill="#000000" opacity="1.000000" stroke="none" 
	d="
M201.468658,226.000000 
	C204.548370,224.431534 208.038391,222.711411 211.654816,221.319809 
	C231.505539,213.681305 243.417206,199.144806 248.843353,178.880280 
	C249.173660,177.646713 249.846268,176.504791 250.679810,175.160126 
	C251.000000,191.926025 251.000000,208.852051 251.000000,226.000000 
	C234.646439,226.000000 218.291885,226.000000 201.468658,226.000000 
z"/>
<path fill="#000000" opacity="1.000000" stroke="none" 
	d="
M0.999999,178.468658 
	C2.343168,180.740692 3.841145,183.417404 5.004422,186.232422 
	C12.619846,204.661102 25.936003,216.877747 44.830013,223.125214 
	C46.517864,223.683304 48.084263,224.608719 49.853539,225.681763 
	C33.740685,226.000000 17.481373,226.000000 1.000000,226.000000 
	C1.000000,210.313141 1.000000,194.625229 0.999999,178.468658 
z"/>
<path fill="#1C254C" opacity="1.000000" stroke="none" 
	d="
M64.468658,226.000000 
	C66.457474,225.666336 68.914436,225.046326 71.372490,225.041992 
	C107.682335,224.977798 143.992340,224.982269 180.302246,225.024353 
	C182.611084,225.027039 184.919418,225.472305 187.613983,225.855835 
	C146.979111,226.000000 105.958214,226.000000 64.468658,226.000000 
z"/>
<path fill="#956D0F" opacity="1.000000" stroke="none" 
	d="
M76.528877,79.913528 
	C80.319733,78.560410 84.038651,76.934471 87.916664,75.911911 
	C95.601479,73.885582 103.447472,72.452866 111.093086,70.299767 
	C122.294510,67.145309 133.320602,66.989128 144.576920,70.141182 
	C153.971268,72.771843 163.463165,75.341347 173.084351,76.800598 
	C184.638519,78.553017 193.432541,91.217583 188.287231,101.578918 
	C178.609924,121.066666 174.455292,142.177155 168.918488,162.882980 
	C167.621140,167.734604 165.567337,169.404755 160.720718,169.080505 
	C155.079880,168.703110 149.394684,168.998947 143.728790,168.982300 
	C140.049835,168.971512 136.767136,167.933426 136.661057,163.669067 
	C136.545151,159.009338 139.996216,158.178482 143.876434,158.087448 
	C153.604385,157.859207 153.569946,157.816467 152.463989,147.902771 
	C151.743561,141.444809 150.927979,134.983917 150.624252,128.502350 
	C150.546265,126.837883 151.810211,124.459267 153.207108,123.499542 
	C157.331833,120.665665 160.690369,117.519005 161.726273,111.745422 
	C154.802628,111.745422 148.138504,111.745422 140.777206,111.745422 
	C141.318985,115.062462 141.971741,118.072701 142.276672,121.117767 
	C143.073395,129.073563 143.613037,137.055939 144.472229,145.004272 
	C144.842300,148.427917 143.461884,149.415405 140.288315,149.377075 
	C132.124084,149.278488 123.954887,149.247635 115.793152,149.432297 
	C111.820992,149.522186 111.084023,147.764038 111.421715,144.207901 
	C112.411133,133.788513 113.121391,123.342590 113.900833,112.205551 
	C107.743523,111.202873 101.627235,110.800346 95.507996,110.748756 
	C94.857117,110.743263 93.404922,113.083282 93.682701,113.829781 
	C94.383560,115.713272 95.859818,117.308228 97.025352,119.018814 
	C97.025352,119.018814 96.967888,119.025764 97.069572,119.309258 
	C98.124908,120.394920 99.078560,121.197090 100.032219,121.999260 
	C100.032219,121.999260 99.983505,122.021690 100.104332,122.221420 
	C100.507690,122.599487 100.790222,122.777840 101.072754,122.956184 
	C101.072754,122.956184 101.018051,122.978432 101.244370,123.244888 
	C102.334915,125.882301 104.006393,128.284821 103.915138,130.618408 
	C103.616562,138.253433 102.702766,145.865906 101.971626,153.481888 
	C101.606537,157.284805 103.193680,159.110443 107.067352,158.993042 
	C110.059296,158.902328 113.055634,158.956421 116.050018,158.946136 
	C116.050018,158.946136 116.002052,158.979340 116.210648,159.157700 
	C116.956169,159.563553 117.493111,159.791046 118.030045,160.018539 
	C118.030045,160.018539 117.970757,160.028976 118.030289,160.358765 
	C118.331833,161.373062 118.573845,162.057556 118.724411,163.170837 
	C118.427567,164.749619 118.222176,165.899612 118.016777,167.049622 
	C118.016777,167.049622 117.989967,166.998505 117.796532,167.116577 
	C117.392677,167.491470 117.182251,167.748306 116.971832,168.005142 
	C116.971832,168.005142 116.974670,167.950424 116.528358,167.932343 
	C107.024254,167.624207 97.966454,167.334137 88.908661,167.044083 
	C88.908661,167.044083 88.959419,167.000504 88.949883,166.649078 
	C88.269676,164.190872 87.599007,162.084106 86.928337,159.977325 
	C86.928337,159.977325 86.987152,160.005966 86.983109,159.619232 
	C83.228394,145.384201 79.523949,131.523010 75.675613,117.701889 
	C75.118538,115.701180 73.871170,113.892670 72.943230,111.995224 
	C72.943230,111.995224 73.001396,112.001122 72.951920,111.690613 
	C72.229378,110.249695 71.556313,109.119286 70.883240,107.988884 
	C70.883240,107.988884 70.972237,108.008896 70.894501,107.762833 
	C70.515358,107.005684 70.213951,106.494606 69.912544,105.983521 
	C69.912544,105.983521 69.987343,106.007820 69.891670,105.754410 
	C69.469276,104.992760 69.142555,104.484512 68.815834,103.976265 
	C68.815834,103.976265 68.964172,104.036804 68.862091,103.809433 
	C68.464973,103.045097 68.169922,102.508141 67.874878,101.971176 
	C67.874878,101.971176 67.976334,102.040504 67.935013,101.667191 
	C67.874123,97.146675 67.854561,92.999481 67.834991,88.852287 
	C67.834999,88.852287 67.935364,88.894066 68.073914,88.702614 
	C68.453865,87.982185 68.695274,87.453209 68.936684,86.924240 
	C68.936684,86.924240 68.959305,86.980728 69.126129,86.766113 
	C69.518242,86.018303 69.743538,85.485115 69.968842,84.951920 
	C69.968842,84.951920 69.994598,84.999931 70.284691,84.887283 
	C71.714340,83.503525 72.853905,82.232422 73.993462,80.961311 
	C73.993462,80.961311 74.010590,81.009872 74.330688,80.933228 
	C75.276817,80.542229 75.902847,80.227875 76.528877,79.913528 
z"/>
<path fill="#946D12" opacity="1.000000" stroke="none" 
	d="
M147.424957,177.071793 
	C148.143356,179.546432 149.954803,182.408966 149.255173,184.380371 
	C148.627304,186.149582 145.272003,187.917694 143.061981,187.993301 
	C132.814697,188.343857 122.547249,188.104935 111.588608,187.773956 
	C109.923416,186.971176 108.956635,186.471542 107.989853,185.971893 
	C107.989861,185.971893 108.042244,185.958023 107.959290,185.702148 
	C107.564377,184.957092 107.252419,184.467911 106.940468,183.978714 
	C106.940468,183.978714 106.998528,184.006332 107.021515,183.620514 
	C107.014191,182.133743 106.983864,181.032791 106.953537,179.931854 
	C106.953537,179.931854 106.991188,179.991074 107.145828,179.782532 
	C107.542801,179.046295 107.785133,178.518570 108.027466,177.990860 
	C108.027466,177.990860 108.042717,178.041290 108.297348,177.953918 
	C109.038467,177.549606 109.524956,177.232681 110.011444,176.915771 
	C110.011452,176.915771 109.987236,176.975204 110.432724,176.968338 
	C123.060455,176.998245 135.242706,177.035019 147.424957,177.071793 
z"/>
<path fill="#7D6A45" opacity="1.000000" stroke="none" 
	d="
M72.963348,112.386398 
	C73.871170,113.892670 75.118538,115.701180 75.675613,117.701889 
	C79.523949,131.523010 83.228394,145.384201 86.964020,159.645798 
	C84.152351,150.857529 81.309868,141.669556 78.574654,132.449799 
	C76.635872,125.914650 74.842010,119.336517 72.963348,112.386398 
z"/>
<path fill="#79674D" opacity="1.000000" stroke="none" 
	d="
M115.728577,158.675903 
	C113.055634,158.956421 110.059296,158.902328 107.067352,158.993042 
	C103.193680,159.110443 101.606537,157.284805 101.971626,153.481888 
	C102.702766,145.865906 103.616562,138.253433 103.915138,130.618408 
	C104.006393,128.284821 102.334915,125.882301 101.247314,123.215500 
	C104.949692,123.350952 106.236458,125.362000 105.682304,129.355469 
	C104.592133,137.211700 104.034401,145.140381 103.061111,153.014954 
	C102.613480,156.636536 103.672516,158.252884 107.526505,158.008377 
	C110.134476,157.842926 112.778969,158.253006 115.728577,158.675903 
z"/>
<path fill="#79674D" opacity="1.000000" stroke="none" 
	d="
M96.940659,118.674316 
	C95.859818,117.308228 94.383560,115.713272 93.682701,113.829781 
	C93.404922,113.083282 94.857117,110.743263 95.507996,110.748756 
	C101.627235,110.800346 107.743523,111.202873 113.909866,111.763527 
	C107.636581,112.023010 101.314095,112.023010 94.194252,112.023010 
	C95.254593,114.535446 96.055283,116.432632 96.940659,118.674316 
z"/>
<path fill="#887246" opacity="1.000000" stroke="none" 
	d="
M147.050140,176.810944 
	C135.242706,177.035019 123.060455,176.998245 110.406319,176.950104 
	C110.331581,176.660004 110.730919,176.134827 111.125557,176.138336 
	C122.975769,176.243515 134.825516,176.400909 147.050140,176.810944 
z"/>
<path fill="#7D6A45" opacity="1.000000" stroke="none" 
	d="
M89.006630,167.448868 
	C97.966454,167.334137 107.024254,167.624207 116.551346,167.947250 
	C107.715294,167.938034 98.409950,167.895844 89.006630,167.448868 
z"/>
<path fill="#7D6A45" opacity="1.000000" stroke="none" 
	d="
M67.537933,89.093811 
	C67.854561,92.999481 67.874123,97.146675 67.900345,101.717911 
	C65.349556,97.994560 65.426964,93.710114 67.537933,89.093811 
z"/>
<path fill="#7D6A45" opacity="1.000000" stroke="none" 
	d="
M73.677414,81.052811 
	C72.853905,82.232422 71.714340,83.503525 70.260506,84.874710 
	C71.084610,83.697960 72.222992,82.421143 73.677414,81.052811 
z"/>
<path fill="#7D6A45" opacity="1.000000" stroke="none" 
	d="
M86.873154,160.365417 
	C87.599007,162.084106 88.269676,164.190872 88.937012,166.679794 
	C88.228439,164.959122 87.523209,162.856323 86.873154,160.365417 
z"/>
<path fill="#7D6A45" opacity="1.000000" stroke="none" 
	d="
M70.890694,108.329483 
	C71.556313,109.119286 72.229378,110.249695 72.935921,111.715073 
	C72.278976,110.923393 71.588562,109.796738 70.890694,108.329483 
z"/>
<path fill="#79674D" opacity="1.000000" stroke="none" 
	d="
M99.901779,121.715530 
	C99.078560,121.197090 98.124908,120.394920 97.079193,119.281967 
	C97.915199,119.791389 98.843269,120.611588 99.901779,121.715530 
z"/>
<path fill="#887246" opacity="1.000000" stroke="none" 
	d="
M108.154953,186.267761 
	C108.956635,186.471542 109.923416,186.971176 111.152222,187.693268 
	C110.382858,187.465012 109.351456,187.014313 108.154953,186.267761 
z"/>
<path fill="#887246" opacity="1.000000" stroke="none" 
	d="
M106.718857,180.165497 
	C106.983864,181.032791 107.014191,182.133743 107.001915,183.645981 
	C106.800934,182.837906 106.642555,181.618530 106.718857,180.165497 
z"/>
<path fill="#7D6A45" opacity="1.000000" stroke="none" 
	d="
M118.248520,166.968262 
	C118.222176,165.899612 118.427567,164.749619 118.906502,163.074661 
	C119.180038,162.549713 119.547424,162.356049 119.547424,162.356049 
	C119.547424,162.356049 119.500107,162.727463 119.326164,163.265381 
	C119.127716,164.403595 119.103210,165.003922 119.078705,165.604233 
	C118.879219,166.031784 118.679741,166.459335 118.248520,166.968262 
z"/>
<path fill="#79674D" opacity="1.000000" stroke="none" 
	d="
M119.482780,162.066284 
	C119.547424,162.356049 119.180038,162.549713 118.997955,162.645889 
	C118.573845,162.057556 118.331833,161.373062 118.036156,160.329254 
	C118.461044,160.572128 118.939590,161.174332 119.482780,162.066284 
z"/>
<path fill="#887246" opacity="1.000000" stroke="none" 
	d="
M106.930115,184.289825 
	C107.252419,184.467911 107.564377,184.957092 107.952103,185.728271 
	C107.658508,185.540482 107.289139,185.070709 106.930115,184.289825 
z"/>
<path fill="#7D6A45" opacity="1.000000" stroke="none" 
	d="
M67.876251,102.292328 
	C68.169922,102.508141 68.464973,103.045097 68.831818,103.883606 
	C68.561630,103.661255 68.219627,103.137367 67.876251,102.292328 
z"/>
<path fill="#887246" opacity="1.000000" stroke="none" 
	d="
M107.764748,178.156235 
	C107.785133,178.518570 107.542801,179.046295 107.115936,179.800903 
	C107.121605,179.459061 107.311821,178.890335 107.764748,178.156235 
z"/>
<path fill="#7D6A45" opacity="1.000000" stroke="none" 
	d="
M69.686462,85.097031 
	C69.743538,85.485115 69.518242,86.018303 69.095703,86.766251 
	C69.067001,86.401390 69.235542,85.821762 69.686462,85.097031 
z"/>
<path fill="#7D6A45" opacity="1.000000" stroke="none" 
	d="
M76.154236,79.850937 
	C75.902847,80.227875 75.276817,80.542229 74.306946,80.923264 
	C74.568604,80.589409 75.174095,80.188881 76.154236,79.850937 
z"/>
<path fill="#887246" opacity="1.000000" stroke="none" 
	d="
M109.698486,176.894501 
	C109.524956,177.232681 109.038467,177.549606 108.271851,177.947296 
	C108.456314,177.643143 108.920914,177.258194 109.698486,176.894501 
z"/>
<path fill="#7D6A45" opacity="1.000000" stroke="none" 
	d="
M68.634033,87.052414 
	C68.695274,87.453209 68.453865,87.982185 68.053009,88.752792 
	C68.039505,88.389809 68.185440,87.785194 68.634033,87.052414 
z"/>
<path fill="#79674D" opacity="1.000000" stroke="none" 
	d="
M119.268173,165.360947 
	C119.103210,165.003922 119.127716,164.403595 119.161949,163.355270 
	C119.266998,163.644058 119.362320,164.380859 119.268173,165.360947 
z"/>
<path fill="#79674D" opacity="1.000000" stroke="none" 
	d="
M117.874931,159.745392 
	C117.493111,159.791046 116.956169,159.563553 116.208389,159.128632 
	C116.571632,159.104874 117.145721,159.288544 117.874931,159.745392 
z"/>
<path fill="#7D6A45" opacity="1.000000" stroke="none" 
	d="
M69.909271,106.297180 
	C70.213951,106.494606 70.515358,107.005684 70.884491,107.807327 
	C70.603470,107.602211 70.254730,107.106529 69.909271,106.297180 
z"/>
<path fill="#7D6A45" opacity="1.000000" stroke="none" 
	d="
M68.839020,104.293350 
	C69.142555,104.484512 69.469276,104.992760 69.879509,105.791809 
	C69.596085,105.591888 69.229149,105.101158 68.839020,104.293350 
z"/>
<path fill="#7D6A45" opacity="1.000000" stroke="none" 
	d="
M117.226341,167.931870 
	C117.182251,167.748306 117.392677,167.491470 117.825386,167.117249 
	C117.858742,167.286102 117.669800,167.572342 117.226341,167.931870 
z"/>
<path fill="#79674D" opacity="1.000000" stroke="none" 
	d="
M100.999115,122.698303 
	C100.790222,122.777840 100.507690,122.599487 100.109177,122.195038 
	C100.303947,122.126099 100.614716,122.283257 100.999115,122.698303 
z"/>
</svg>